<?xml version="1.0" encoding="UTF-8" standalone="no"?>
<!DOCTYPE svg PUBLIC "-//W3C//DTD SVG 1.1//EN" "http://www.w3.org/Graphics/SVG/1.1/DTD/svg11.dtd">
<svg width="100%" height="100%" viewBox="0 0 1024 1024" version="1.1" xmlns="http://www.w3.org/2000/svg" xmlns:xlink="http://www.w3.org/1999/xlink" xml:space="preserve" xmlns:serif="http://www.serif.com/" style="fill-rule:evenodd;clip-rule:evenodd;stroke-linecap:round;stroke-linejoin:round;stroke-miterlimit:1.5;">
    <g transform="matrix(1.13401,0,0,1.13401,-56.1376,-40.9363)">
        <circle cx="501" cy="494" r="401" style="fill:white;fill-opacity:0;stroke:rgb(5,23,154);stroke-width:21.9px;"/>
    </g>
    <g transform="matrix(1.55374,0,0,17.4229,-235.608,-1919.94)">
        <path d="M526.331,112.208C526.331,111.541 520.259,111 512.781,111L449.55,111C442.071,111 436,111.541 436,112.208L436,138.792C436,139.459 442.071,140 449.55,140L512.781,140C520.259,140 526.331,139.459 526.331,138.792L526.331,112.208Z" style="fill:rgb(5,23,154);"/>
    </g>
    <g transform="matrix(1.27275,0.891191,-9.99335,14.272,1298.66,-1907.62)">
        <path d="M526.331,112.208C526.331,111.541 520.259,111 512.781,111L449.55,111C442.071,111 436,111.541 436,112.208L436,138.792C436,139.459 442.071,140 449.55,140L512.781,140C520.259,140 526.331,139.459 526.331,138.792L526.331,112.208Z" style="fill:rgb(5,23,154);"/>
    </g>
    <g transform="matrix(1.28548,-0.900103,9.99335,14.272,-1505.6,-1045.72)">
        <path d="M526.331,112.22C526.331,111.547 520.259,111 512.781,111L449.55,111C442.071,111 436,111.547 436,112.22L436,138.78C436,139.453 442.071,140 449.55,140L512.781,140C520.259,140 526.331,139.453 526.331,138.78L526.331,112.22Z" style="fill:rgb(5,23,154);"/>
    </g>
    <g transform="matrix(1.08501,0,-7.45439e-17,1.08501,-31.5884,-16.7302)">
        <circle cx="501" cy="494" r="401" style="fill:white;stroke:rgb(5,23,154);stroke-width:35.05px;"/>
    </g>
    <g transform="matrix(1.36385,0,0,1.36385,-186.291,-35.1365)">
        <g transform="matrix(1,0,0,1,82,-19.2215)">
            <path d="M250,300C348,242 450,301 450,300C450,300 565,355 650,300L650,545C565,600 450,545 450,545C450,546 348,487 250,545L250,300Z" style="fill:rgb(5,23,154);"/>
        </g>
        <g transform="matrix(1.33333,0,0,0.904904,5.33333,7.49742)">
            <path d="M239,307.304C239,304.377 237.387,302 235.4,302L218.6,302C216.613,302 215,304.377 215,307.304L215,709.696C215,712.623 216.613,715 218.6,715L235.4,715C237.387,715 239,712.623 239,709.696L239,307.304Z" style="fill:rgb(5,23,154);"/>
        </g>
    </g>
    <g transform="matrix(1.76004,0,0,1.76004,-389.142,-228.755)">
        <text x="410.19px" y="449px" style="font-family:'Orbitron-Regular', 'Orbitron';font-size:66.667px;fill:white;">00:00</text>
    </g>
</svg>
